<mxfile host="app.diagrams.net" modified="2023-06-27T07:02:58.209Z" agent="Mozilla/5.0 (Macintosh; Intel Mac OS X 10_15_7) AppleWebKit/537.36 (KHTML, like Gecko) Chrome/114.0.0.0 Safari/537.36" version="21.2.9" etag="AO5Dw3_3qteKH2T7WzG-" type="github">
  <diagram name="第 1 页" id="IwmhfWMd0zcIrNiJWKoh">
    <mxGraphModel>
      <root>
        <mxCell id="0" />
        <mxCell id="1" parent="0" />
      </root>
    </mxGraphModel>
  </diagram>
</mxfile>
